<svg xmlns="http://www.w3.org/2000/svg" width="24" height="24" viewBox="0 0 24 24" fill="currentColor" aria-hidden="true">
  <path d="M12.186 24h-.007c-3.581-.024-6.334-1.205-8.184-3.509C2.35 18.44 1.5 15.586 1.472 12.01v-.017c.03-3.579.879-6.43 2.525-8.482C5.845 1.205 8.6.024 12.18 0h.014c2.746.02 5.043.725 6.826 2.098 1.677 1.29 2.858 3.13 3.509 5.467l-2.04.569c-1.104-3.96-3.898-5.984-8.304-6.015-2.91.022-5.11.936-6.54 2.717C4.307 6.504 3.616 8.914 3.589 12c.027 3.086.718 5.496 2.057 7.164 1.43 1.783 3.631 2.698 6.54 2.717 2.623-.02 4.358-.631 5.8-2.045 1.647-1.613 1.618-3.593 1.09-4.798-.31-.71-.873-1.3-1.634-1.75-.192 1.352-.622 2.446-1.284 3.272-.886 1.102-2.14 1.704-3.73 1.79-1.202.065-2.361-.218-3.259-.801-1.063-.689-1.685-1.74-1.752-2.964-.065-1.19.408-2.285 1.322-3.083.87-.759 2.087-1.216 3.523-1.325a13.797 13.797 0 0 1 3.086.157c-.13-.986-.483-1.635-1.043-1.925-.79-.41-1.965-.421-3.211-.032l-.001.001c-.79.247-1.293.628-1.32.65l-1.155-1.685c.052-.04.784-.585 1.949-.945 1.638-.505 3.472-.462 4.71.176 1.298.667 2.058 2.021 2.256 4.022.023.183.043.373.06.567 1.35.582 2.372 1.446 2.963 2.802.796 1.821.746 4.821-1.72 7.234-1.827 1.788-4.036 2.597-7.152 2.62Zm2.663-11.62c-.373 0-.756.011-1.147.032-1.87.106-3.036.964-2.973 2.185.066 1.278 1.474 1.873 2.83 1.8 1.245-.067 2.869-.552 3.14-3.782a10.352 10.352 0 0 0-1.85-.235Z"/>
</svg>
