<svg xmlns="http://www.w3.org/2000/svg" width="24" height="24" viewBox="0 0 24 24" fill="currentColor" aria-hidden="true">
  <path d="M12 0C5.373 0 0 5.373 0 12c0 2.625.846 5.059 2.281 7.031-.088-.797-.168-2.02.035-2.894.206-.789 1.321-4.192 1.321-4.192s-.337-.681-.337-1.688c0-1.563.914-2.737 2.053-2.737.964 0 1.429.728 1.429 1.587 0 .969-.619 2.421-.931 3.75-.268 1.119.563 2.036 1.675 2.036 2.003 0 3.555-2.103 3.555-5.153 0-2.694-1.948-4.579-4.737-4.579-3.211 0-5.104 2.412-5.104 4.893 0 .969.375 2.002.844 2.559.094.112.106.212.081.325-.135.563-.438 1.8-.498 2.053-.077.319-.242.386-.564.236-2.1-.955-3.422-3.994-3.422-6.508 0-5.25 3.839-10.088 11.067-10.088 6.172 0 10.995 4.319 10.995 10.114 0 6.043-3.815 10.898-9.093 10.898-1.781 0-3.467-.919-4.043-2.009l-1.099 4.193c-.398 1.523-1.113 3.344-1.669 4.486C9.579 23.812 10.721 24 11.897 24H12c6.627 0 12-5.373 12-12S18.627 0 12 0z"/>
</svg>
