<svg xmlns="http://www.w3.org/2000/svg" width="24" height="24" viewBox="0 0 24 24" fill="currentColor" aria-hidden="true">
  <path d="M12.217 0C7.855 0 4.108 2.717 2.473 6.667h-.006C.882 10.528 1.578 15.027 4.52 18.428c1.906 2.177 4.837 3.572 8.697 3.572h.007c3.86 0 6.791-1.395 8.697-3.572 2.942-3.401 3.638-7.9 2.053-11.761C21.892 2.717 18.145 0 12.217 0zm-.031 2.163c4.752 0 8.385 2.987 9.678 7.028.988 3.127.456 6.789-1.678 9.247-1.567 1.801-3.978 2.875-7.001 2.875h-.007c-3.023 0-5.434-1.074-7.001-2.875-2.134-2.458-2.666-6.12-1.678-9.247C3.792 5.15 7.425 2.163 12.186 2.163h-.007zm-.007 3.24a6.597 6.597 0 100 13.194 6.597 6.597 0 000-13.194zm0 2.163a4.434 4.434 0 110 8.868 4.434 4.434 0 010-8.868z"/>
</svg>
